<svg width="107" height="48" viewBox="0 0 107 48" fill="none" xmlns="http://www.w3.org/2000/svg">
<path d="M6.98128 6.1833C4.38247 13.3729 4.25252 23.3583 2.95312 32.5451C2.43336 21.7607 1.78365 11.7752 1.26389 1.39026C1.00401 1.39026 0.874074 1.39026 0.744129 1.39026C0.61419 1.78968 0.48425 1.78968 0.354309 2.18909C1.13395 15.37 1.78365 28.1516 2.5633 41.7318C4.77229 32.1456 4.64234 20.5624 6.7214 10.9764C7.63095 19.7636 7.63095 28.9503 7.76091 37.3381C8.02082 37.3381 8.15071 37.3381 8.28067 37.3381C8.41063 37.3381 8.41063 37.3381 8.67048 36.9386C8.54059 28.1516 8.54059 18.5653 7.63095 9.77809C7.50106 8.57984 7.24114 7.78098 6.98128 6.1833Z" fill="white"/>
<path d="M34.9184 18.9648C34.1388 18.9648 33.619 20.1631 33.2292 22.5596C33.0993 23.3585 32.9693 24.5568 32.8393 25.3556C32.3196 26.1543 31.41 23.7578 31.54 27.7521C31.9298 28.1516 32.3196 28.5508 32.5795 28.5508C32.5795 33.3441 32.5795 37.7376 32.5795 41.7319C34.5286 44.5279 35.828 41.7319 37.2574 38.1371C37.1274 37.3381 36.9975 36.5393 36.7376 35.7406C36.3477 36.5393 36.2178 36.9388 35.828 37.7376C35.3082 38.5364 34.6586 39.7346 34.1388 40.1341C33.749 40.5336 33.3591 40.1341 33.3591 38.5364C33.3591 35.3411 33.4891 32.5451 33.4891 29.3498C35.6981 29.3498 37.7771 31.3468 39.8561 29.7493C39.4663 22.5596 37.5172 18.5654 34.9184 18.9648ZM33.8789 26.1543C34.0088 22.1603 34.2687 21.3614 35.3082 21.7608C36.6077 22.1603 37.7771 23.3586 38.6867 27.3526C37.1274 26.9533 35.4382 26.5538 33.8789 26.1543Z" fill="white"/>
<path d="M71.9515 29.3496C71.0416 29.3496 70.1323 28.9501 69.2227 28.9501C68.703 28.9501 68.4431 28.1513 68.3132 26.9531C67.7934 22.5593 67.2736 18.1657 66.7539 13.3727C66.2341 18.1657 65.5844 22.5593 65.0646 26.9531C64.6748 26.9531 64.415 26.5536 64.0251 26.5536C64.0251 27.3524 63.8952 28.1513 63.8952 28.9501C64.285 28.9501 64.5449 29.3496 64.8048 29.3496C64.6748 32.9444 64.5449 36.5391 64.285 40.5334C64.6748 40.5334 64.9347 40.5334 65.1946 40.5334C65.3245 36.9386 65.5844 33.7431 65.7143 30.1484C67.1437 30.1484 68.0533 30.9471 68.573 35.3409C68.9629 38.5361 69.4826 41.3321 70.0024 44.5274C70.2623 44.1281 70.5221 43.7286 70.782 42.9299C70.1323 38.9356 69.6125 35.3409 68.9629 31.3466C70.0024 31.3466 70.9119 31.3466 71.9515 31.3466C72.0811 30.9471 71.9515 30.1484 71.9515 29.3496ZM66.1042 27.3524C66.2341 25.3553 66.494 23.7576 66.6239 21.3611C66.8838 23.7576 67.1437 25.7548 67.4036 28.1513C67.0137 27.7518 66.6239 27.7518 66.1042 27.3524Z" fill="white"/>
<path d="M21.0149 5.38458C20.8849 5.78401 20.8849 5.78401 20.7549 6.18343C21.9244 10.577 22.5742 16.1689 22.964 21.3614C22.3142 21.3614 21.6645 20.5626 21.1448 20.5626C20.1053 20.962 19.3256 22.1603 18.9358 25.3556C18.546 28.551 18.8058 31.7463 19.5855 34.5423C20.7549 38.5366 22.3142 39.7348 24.0035 38.9358C24.2633 26.5538 24.1335 14.9707 21.4047 4.58575C21.2747 4.98516 21.1448 5.38458 21.0149 5.38458ZM23.0939 29.7493C22.964 31.7463 23.0939 33.7435 23.0939 36.1401C21.4047 36.5393 19.9753 33.3441 19.7154 28.9503C19.5855 26.9533 19.8454 24.9563 20.4951 24.1573C21.1448 23.3585 21.6645 22.959 22.3142 24.1573C22.964 25.755 23.2238 27.3528 23.0939 29.7493Z" fill="white"/>
<path d="M52.7203 6.98233C52.7203 6.18351 52.3305 5.78408 52.0706 4.98523C52.0706 5.38465 51.9406 5.38466 51.8107 5.78408C51.9406 8.58002 51.9406 11.7754 52.0706 14.5713C52.3305 19.7638 52.5903 25.3558 52.7203 30.5483C52.8502 32.9448 52.4604 35.3413 51.9406 36.9388C49.6017 43.3296 46.3532 40.9331 45.0538 32.5453L44.9238 32.1458C44.664 32.5453 44.534 32.5453 44.2742 32.9448C44.2742 33.344 44.2742 33.7435 44.2742 33.7435C45.1837 41.732 47.3927 44.5278 50.3813 42.5308C53.1101 40.5336 54.1496 36.14 53.7598 27.7523C53.3699 20.5626 53.1101 13.7725 52.7203 6.98233Z" fill="white"/>
<path d="M57.1382 30.1488C56.2287 28.551 56.2287 25.755 56.6185 23.758C56.7484 24.1575 56.7484 25.3557 56.8784 25.3557C58.1778 26.1545 59.4772 26.554 60.9065 27.3528C60.9065 23.758 60.9065 20.962 60.9065 17.7667C59.6071 18.1661 58.3077 18.1661 57.1382 18.9649C55.1891 20.5626 54.6694 26.9533 56.0987 31.347C56.4886 32.5453 57.1382 33.7435 57.7879 34.5423C59.0873 35.3413 60.3868 36.14 61.6861 36.5395C61.6861 36.5395 61.8161 36.5395 61.9461 36.14C61.9461 35.3411 61.9461 34.5423 61.9461 33.7435C61.0365 33.344 60.2568 33.344 59.4772 32.5453C58.6975 32.5453 57.9179 31.7463 57.1382 30.1488ZM59.997 20.5626C59.997 22.1603 59.997 22.959 59.997 24.5568C58.9574 24.1575 58.0478 23.3585 57.1382 22.959C57.1382 22.5597 57.1382 22.1603 57.1382 21.7609C58.0478 21.3614 58.9574 20.962 59.997 20.5626Z" fill="white"/>
<path d="M79.2282 22.5596C77.1491 23.3585 77.0194 29.3498 76.1096 33.7433C75.8495 28.1516 75.7198 22.5596 73.7705 19.7637C73.6408 20.9619 73.5111 21.3614 73.5111 22.1603C74.81 24.1573 74.9404 28.1516 75.0701 31.7463C75.1997 35.7406 75.4598 40.1341 75.5895 44.1284C75.7198 44.1284 75.7198 44.1284 75.8495 44.1284C76.629 38.1371 77.2788 31.7463 78.4487 26.1543C78.5784 26.1543 78.708 26.1543 78.708 26.1543C79.0985 31.3468 79.4882 36.5393 80.0076 42.1311C80.2677 41.7319 80.5278 41.7319 80.9175 41.3324C80.5278 36.1399 80.0076 30.9473 79.6179 25.7551C79.6179 24.9561 79.3578 23.7578 79.2282 22.5596Z" fill="white"/>
<path d="M81.8274 27.7518C83.3863 28.9501 84.946 29.7488 86.6346 30.9471C86.2449 33.3436 85.8551 35.3408 85.3357 37.3378C84.5555 39.7344 83.6464 41.7316 82.7365 44.1281C82.7365 44.1281 82.7365 44.5274 82.6069 44.9269C82.8669 45.3264 82.9966 45.7256 83.1263 46.1251C83.9065 44.1281 84.4259 41.7316 85.2053 40.5333C87.025 37.7373 87.1547 32.1453 88.0646 27.7518C86.3752 27.3523 84.946 26.9528 83.516 26.5536C83.516 26.1541 83.516 25.7546 83.516 25.7546C84.8156 22.1598 86.5049 22.5593 88.1942 22.9588C88.1942 22.1598 88.1942 21.3611 88.1942 20.5622C85.5951 18.1657 83.1263 20.9616 81.8274 27.7518Z" fill="white"/>
<path d="M106.646 29.7493C106.646 28.9505 106.646 27.3528 106.516 25.7551C106.126 23.3585 105.866 20.5627 105.216 18.965C104.177 16.169 102.748 17.3673 101.708 21.7609C100.669 25.7551 100.798 30.9476 102.098 33.7436C102.877 35.3413 103.787 36.1401 104.567 36.9388C105.866 38.1371 106.386 36.5396 106.516 32.1458C106.646 31.7465 106.646 30.9476 106.646 29.7493ZM105.736 32.1458C105.736 33.7436 105.477 34.9418 104.827 34.1431C104.307 33.7436 103.657 33.3441 103.137 32.5453C102.358 31.3471 101.968 29.35 102.098 26.554C102.228 23.758 103.008 21.3615 103.787 20.9621C104.567 20.5627 105.087 21.7609 105.346 23.758C105.606 25.7551 105.606 27.7523 105.866 29.7493C105.866 29.7493 105.866 29.7493 105.736 29.7493C105.736 30.5483 105.736 31.3471 105.736 32.1458Z" fill="white"/>
<path d="M15.6874 28.5506C15.4275 30.9473 15.1676 33.3438 14.7778 35.3409C13.9982 38.9356 12.4389 38.5361 11.7892 34.5421C11.6592 32.9444 11.5293 31.3466 11.3993 30.1484C11.2694 27.3524 11.1394 24.5566 11.0095 21.7605C10.8796 21.7605 10.8796 21.3611 10.7496 21.3611C10.6197 22.1601 10.2299 22.9588 10.2299 23.3583C10.3598 27.3524 10.6197 31.3466 11.0095 34.9414C11.2694 38.1369 11.9191 40.1339 13.0886 40.5334C14.258 40.9329 15.2975 39.7344 15.6874 36.1396C16.3371 32.1456 16.7269 28.1513 17.1168 23.7576C16.7269 23.3583 16.467 22.9588 16.0772 22.9588C16.0772 25.3553 15.9473 26.9531 15.6874 28.5506Z" fill="white"/>
<path d="M97.1603 35.7406C96.5105 34.9418 95.6006 34.1431 95.0812 32.9448C93.9113 30.1488 94.1713 26.554 95.4709 24.5568C95.8607 23.758 96.3801 23.3586 96.9002 22.9593C96.7698 22.1603 96.6401 21.3615 96.5105 20.5627C95.9904 20.9621 95.6006 21.3615 95.2109 22.1603C93.1318 24.9563 92.7421 32.1458 94.6908 36.1401C95.6006 38.1371 96.7698 38.5366 97.9397 39.3354C98.0694 39.3354 98.0694 39.3354 98.1998 38.9361C98.1998 38.1371 98.1998 37.3383 98.1998 36.5396C97.8093 36.1401 97.4196 36.1401 97.1603 35.7406Z" fill="white"/>
<path d="M27.1222 23.3585C26.6024 22.959 26.3425 22.959 26.2126 24.9563C25.9527 32.9446 28.0317 40.5336 30.6306 41.7318C30.7605 40.9331 30.7605 40.1343 30.8904 39.7348C27.6419 34.5423 27.382 33.7436 27.1222 23.3585Z" fill="white"/>
<path d="M26.6023 8.57971C26.3424 8.57971 26.0825 8.57971 25.8226 8.57971C25.8226 10.5768 25.8226 12.5739 25.8226 14.571C26.0825 14.571 26.3424 14.571 26.6023 14.571C26.6023 12.5739 26.6023 10.5768 26.6023 8.57971Z" fill="white"/>
</svg>
